<?xml version="1.0" standalone="no"?>
<!DOCTYPE svg PUBLIC "-//W3C//DTD SVG 20010904//EN"
 "http://www.w3.org/TR/2001/REC-SVG-20010904/DTD/svg10.dtd">
<svg version="1.0" xmlns="http://www.w3.org/2000/svg"
 width="528.000000pt" height="528.000000pt" viewBox="0 0 528.000000 528.000000"
 preserveAspectRatio="xMidYMid meet">

<g transform="translate(0.000000,528.000000) scale(0.100000,-0.100000)"
fill="#000000" stroke="none">
<path d="M2422 4499 c-243 -19 -422 -222 -422 -477 0 -39 -6 -67 -20 -90 -27
-44 -16 -91 59 -248 106 -220 208 -351 322 -410 47 -25 65 -29 139 -29 74 0
92 4 139 28 118 62 215 187 327 422 78 164 83 187 55 241 -14 27 -21 57 -21
97 0 183 -101 345 -261 422 -92 44 -175 56 -317 44z m-65 -425 c113 -17 237
-15 330 7 29 6 81 8 130 3 l82 -6 12 -35 c14 -43 5 -108 -21 -151 -16 -26 -26
-32 -52 -32 -43 0 -205 27 -284 46 -60 15 -65 15 -124 -5 -78 -27 -190 -51
-239 -51 -41 0 -72 25 -90 73 -15 40 -14 132 2 145 7 6 42 13 77 15 36 2 66 4
67 5 1 1 51 -5 110 -14z"/>
<path d="M3052 4393 c-24 -10 -80 -93 -75 -112 5 -18 7 -18 40 5 22 15 50 24
74 24 38 0 69 -18 284 -170 90 -64 172 -92 256 -88 51 2 64 6 67 21 3 14 -5
17 -53 17 -81 0 -181 26 -247 63 -58 32 -184 145 -173 155 3 3 49 -11 103 -31
53 -20 126 -41 162 -48 99 -17 231 5 251 42 14 27 9 31 -31 19 -19 -5 -71 -15
-117 -21 -127 -17 -199 -2 -340 71 -111 58 -159 70 -201 53z"/>
<path d="M1465 4196 c-10 -15 -15 -35 -11 -48 3 -13 122 -223 265 -468 150
-259 255 -449 250 -454 -4 -5 -41 -18 -80 -28 -93 -23 -144 -54 -208 -124 -49
-53 -121 -185 -136 -246 l-7 -28 971 0 c794 0 971 2 971 13 0 22 -45 130 -74
177 -36 58 -91 116 -138 146 -64 41 -184 75 -284 81 -92 6 -93 6 -176 -34
-139 -67 -180 -78 -303 -78 -81 0 -124 5 -165 19 -79 27 -191 84 -216 109 -12
12 -122 195 -244 407 -354 613 -330 575 -367 578 -25 3 -35 -2 -48 -22z"/>
<path d="M4816 3138 c3 -18 8 -116 11 -218 15 -485 -113 -936 -381 -1345 -431
-657 -1152 -1045 -1941 -1045 -386 0 -731 84 -1078 262 -104 53 -363 220 -384
247 -8 10 -12 11 -13 4 0 -14 134 -129 245 -208 302 -216 667 -356 1060 -406
119 -15 406 -15 525 1 697 88 1280 453 1658 1033 269 415 401 952 352 1425
-14 135 -41 282 -51 282 -4 0 -6 -15 -3 -32z"/>
<path d="M2472 2760 l-1244 -5 -20 -25 c-28 -34 -24 -63 65 -505 42 -209 94
-477 117 -595 50 -264 54 -277 94 -301 30 -18 63 -19 1019 -19 1079 0 1031 -3
1056 57 14 36 261 1277 261 1315 0 31 -39 78 -64 78 -8 0 -20 1 -28 3 -7 1
-573 0 -1256 -3z m1044 -125 c146 -43 199 -221 101 -340 -81 -99 -238 -100
-324 -2 -118 134 -24 344 158 356 8 1 38 -6 65 -14z"/>
<path d="M3342 2518 c-49 -103 -37 -154 46 -189 47 -20 129 -28 150 -15 20 12
52 84 59 131 5 43 5 45 -20 45 -22 0 -27 -6 -33 -37 -4 -21 -13 -51 -21 -67
-14 -26 -18 -28 -59 -23 -89 10 -111 45 -78 127 30 74 -10 99 -44 28z"/>
<path d="M1395 1260 c-15 -17 -16 -24 -7 -45 l12 -25 1095 0 c737 0 1103 3
1116 10 25 14 25 56 0 70 -13 7 -377 10 -1109 10 -1077 0 -1089 0 -1107 -20z"/>
</g>
</svg>
