<?xml version="1.0" standalone="no"?>
<!DOCTYPE svg PUBLIC "-//W3C//DTD SVG 20010904//EN"
 "http://www.w3.org/TR/2001/REC-SVG-20010904/DTD/svg10.dtd">
<svg version="1.0" xmlns="http://www.w3.org/2000/svg"
 width="483.000000pt" height="472.000000pt" viewBox="0 0 483.000000 472.000000"
 preserveAspectRatio="xMidYMid meet">

<g transform="translate(0.000000,472.000000) scale(0.100000,-0.100000)"
fill="#000000" stroke="none">
<path d="M2572 3814 c-7 -8 -8 -14 -3 -14 10 0 25 19 20 25 -2 1 -10 -3 -17
-11z"/>
<path d="M2615 3500 c-3 -6 1 -7 9 -4 18 7 21 14 7 14 -6 0 -13 -4 -16 -10z"/>
<path d="M2506 3453 c-6 -14 -5 -15 5 -6 7 7 10 15 7 18 -3 3 -9 -2 -12 -12z"/>
<path d="M3015 2931 c-13 -5 -5 -8 27 -8 27 0 59 -8 79 -19 44 -25 82 -97 73
-139 -15 -75 -94 -164 -199 -227 -68 -40 -20 -26 91 28 170 81 235 203 163
306 -39 55 -164 86 -234 59z"/>
<path d="M1993 2896 c-103 -26 -208 -74 -208 -96 0 -36 222 -70 454 -70 248 0
546 39 612 79 l34 21 -30 -5 c-213 -39 -596 -62 -763 -47 -104 10 -162 27
-162 50 0 14 68 51 131 71 86 27 46 25 -68 -3z"/>
<path d="M2008 2628 c-60 -35 -58 -62 4 -94 77 -40 394 -59 568 -34 86 12 230
43 230 50 0 3 -16 15 -34 27 -34 22 -36 22 -118 7 -105 -20 -409 -29 -507 -16
-84 12 -125 38 -101 66 17 22 2 20 -42 -6z"/>
<path d="M2070 2378 c-19 -13 -36 -31 -38 -40 -6 -29 68 -67 169 -88 162 -34
354 -22 521 31 l68 21 -61 29 c-54 26 -65 28 -107 19 -92 -20 -237 -28 -342
-19 -127 11 -168 23 -172 50 -3 20 -4 20 -38 -3z"/>
<path d="M1790 2224 c-115 -31 -206 -86 -194 -118 30 -78 781 -124 1155 -72
276 38 453 107 420 163 -8 15 -10 15 -11 2 -1 -84 -320 -139 -808 -139 -254 0
-417 13 -524 41 -79 21 -104 38 -95 62 7 18 60 43 128 61 48 13 50 15 19 15
-19 0 -60 -7 -90 -15z"/>
<path d="M3214 2054 c-158 -87 -558 -142 -939 -130 -110 3 -222 8 -250 10 -36
4 -28 1 25 -9 110 -21 495 -30 675 -16 152 12 308 39 393 67 58 20 133 66 150
94 7 11 11 19 10 19 -2 -1 -30 -16 -64 -35z"/>
<path d="M1948 1943 c7 -3 16 -2 19 1 4 3 -2 6 -13 5 -11 0 -14 -3 -6 -6z"/>
</g>
</svg>
